# Blender v2.78 (sub 0) OBJ File: ''
# www.blender.org
v -0.150000 1.550001 0.040000
v -0.150000 1.550001 -0.040000
v -0.140000 1.440001 -0.080000
v -0.140000 1.440001 0.080000
v -0.050000 1.580001 0.090000
v -0.050000 1.620001 -0.050000
v -0.070000 1.570001 -0.100000
v -0.060000 1.390001 -0.090000
v -0.100000 1.380001 -0.060000
v -0.140000 1.380001 0.020000
v -0.110000 1.480001 0.160000
v -0.050000 1.490001 0.130000
v 0.010000 1.510001 0.120000
v 0.000000 1.560001 0.100000
v -0.040000 1.610001 0.030000
v 0.140000 1.440001 0.080000
v 0.140000 1.440001 -0.080000
v 0.150000 1.550001 -0.040000
v 0.150000 1.550001 0.040000
v 0.090000 1.580001 0.090000
v 0.110000 1.480001 0.160000
v 0.140000 1.380001 0.020000
v 0.100000 1.380001 -0.060000
v 0.060000 1.390001 -0.090000
v 0.070000 1.570001 -0.100000
v 0.050000 1.620001 -0.050000
v 0.040000 1.610001 0.030000
v 0.000000 1.560001 0.110000
v 0.090000 1.580001 0.100000
v 0.040000 1.540001 0.110000
v 0.050000 1.490001 0.130000
v -0.020000 1.470001 0.140000
v -0.010000 1.430001 0.150000
v 0.080000 1.410001 0.100000
v 0.100000 1.210001 0.060000
v 0.090000 1.210001 -0.070000
v 0.020000 1.190001 -0.110000
v 0.000000 1.450001 -0.100000
v -0.080000 1.410001 0.100000
v -0.040000 1.430001 0.150000
v -0.040000 1.430001 0.160000
v -0.050000 1.490001 0.140000
v 0.010000 1.510001 0.130000
v 0.040000 1.540001 0.120000
v 0.050000 1.490001 0.140000
v -0.020000 1.470001 0.150000
v -0.010000 1.430001 0.160000
v -0.040000 1.200001 0.090000
v 0.040000 1.200001 0.090000
v -0.100000 1.210001 0.060000
v -0.020000 1.190001 -0.110000
v -0.090000 1.210001 -0.070000
v -0.080000 1.410001 0.110000
vt 0.4727 0.7386
vt 0.5470 0.8087
vt 0.4300 0.9634
vt 0.3591 0.7507
vt 0.4586 0.6320
vt 0.6455 0.6410
vt 0.6376 0.1007
vt 0.6455 0.2974
vt 0.5587 0.2234
vt 0.4601 0.0376
vt 0.3350 0.1146
vt 0.3413 0.0370
vt 0.3062 0.9777
vt 0.2933 0.8393
vt 0.3686 0.6723
vt 0.3742 0.6367
vt 0.3897 0.6027
vt 0.4262 0.5904
vt 0.5369 0.6143
vt 0.3158 0.4943
vt 0.3300 0.3688
vt 0.4022 0.4225
vt 0.3936 0.4760
vt 0.4166 0.5281
vt 0.3411 0.5474
vt 0.2530 0.4470
vt 0.2588 0.3403
vt 0.2825 0.2744
vt 0.4636 0.3567
vt 0.5430 0.4214
vt 0.5005 0.5086
vt 0.3927 0.5630
vt 0.3628 0.5784
vt 0.3497 0.6117
vt 0.3230 0.6260
vt 0.2780 0.5454
vt 0.3792 0.2307
vt 0.2909 0.6983
vt 0.3361 0.6457
vt 0.4199 0.5873
vt 0.3841 0.5990
vt 0.3956 0.5685
vt 0.4117 0.5439
vt 0.3688 0.6321
vt 0.3537 0.6168
vt 0.3666 0.5834
vt 0.3348 0.6408
vt 0.3285 0.6289
vt 0.3143 0.6660
vt 0.0184 0.4961
vt 0.0253 0.2981
vt 0.0097 0.1736
vt 0.0001 0.7026
vt 0.0032 0.5892
vt 0.0239 0.7868
vt 0.0215 0.1145
vt 0.0784 0.0001
vt 0.0300 0.9999
vn -0.9959 -0.0905 0.0000
vn -0.4928 0.2574 0.8312
vn -0.3918 0.8847 0.2528
vn -0.5735 0.8192 0.0000
vn -0.5345 0.6949 -0.4811
vn -0.6199 0.2178 -0.7539
vn -0.1629 -0.0637 -0.9846
vn -0.4216 -0.5270 -0.7379
vn -0.7171 -0.5976 -0.3586
vn -1.0000 0.0000 0.0000
vn -0.6860 -0.5145 0.5145
vn -0.8418 0.5378 0.0468
vn 0.3627 0.3785 0.8516
vn 0.0169 0.4061 0.9137
vn -0.0405 0.3641 0.9305
vn 0.2467 0.8497 0.4660
vn -0.7775 0.6047 0.1728
vn 0.9959 -0.0905 0.0000
vn 0.6834 0.1938 0.7038
vn 0.9289 0.3182 0.1892
vn 0.6860 -0.5145 0.5145
vn 1.0000 0.0000 0.0000
vn 0.7171 -0.5976 -0.3586
vn 0.4216 -0.5270 -0.7379
vn 0.1629 -0.0637 -0.9846
vn 0.6199 0.2178 -0.7539
vn 0.5345 0.6949 -0.4811
vn 0.5735 0.8192 0.0000
vn 0.5096 0.8548 0.0986
vn 0.3597 0.9193 0.1599
vn -0.1282 0.8402 0.5269
vn -0.1137 0.5544 0.8245
vn -0.3936 0.2725 0.8780
vn -0.1497 0.8086 0.5690
vn -0.1640 0.2005 0.9659
vn 0.2294 -0.6882 0.6882
vn 0.4346 -0.6862 0.5833
vn 0.0000 -0.1644 -0.9864
vn 0.1045 -0.0610 -0.9927
vn 0.0000 0.0000 -1.0000
vn 0.0000 0.7071 -0.7071
vn 0.0000 0.8137 0.5812
vn -0.1045 -0.0610 -0.9927
vn -0.4346 -0.6862 0.5833
vn -0.4062 -0.6888 0.6005
vn 0.3720 0.3487 0.8602
vn 0.0000 -0.9285 0.3714
vn -0.0517 0.3620 0.9308
vn -0.0000 0.4472 0.8944
vn -0.1185 0.2962 0.9478
vn 0.0000 0.2425 0.9701
vn 0.7915 -0.0428 0.6097
vn 0.8529 -0.3010 -0.4265
vn 0.9956 -0.0541 -0.0766
vn 0.6018 0.0116 -0.7986
vn 0.4989 -0.0131 -0.8665
vn 0.0000 0.0995 -0.9950
vn 0.0000 -0.0476 0.9989
vn 0.4606 -0.1296 0.8781
vn -0.7915 -0.0428 0.6097
vn -0.4606 -0.1296 0.8781
vn -0.4989 -0.0131 -0.8665
vn -0.6018 0.0116 -0.7986
vn -0.8941 -0.0263 -0.4471
vn -0.9667 -0.2450 -0.0744
vn -0.2169 0.9762 0.0000
vn 0.6247 -0.7809 0.0000
vn -0.9864 -0.1644 0.0000
vn -0.3162 0.9487 0.0000
vn -0.9806 -0.1961 0.0000
vn 0.9806 0.1961 0.0000
vn 0.2747 -0.9615 0.0000
vn 0.9701 0.2425 0.0000
vn -0.4472 0.8944 0.0000
s off
f 1/1/1 2/2/1 3/3/1
f 1/1/1 3/3/1 4/4/1
f 1/1/2 4/4/2 5/5/2
f 1/1/3 5/5/3 6/6/3
f 1/1/4 6/6/4 2/2/4
f 2/7/5 6/8/5 7/9/5
f 2/7/6 7/9/6 3/10/6
f 3/10/7 7/9/7 8/11/7
f 3/10/8 8/11/8 9/12/8
f 3/3/9 9/13/9 10/14/9
f 3/3/10 10/14/10 4/4/10
f 4/4/11 10/14/11 11/15/11
f 4/4/12 11/15/12 5/5/12
f 5/5/13 11/15/13 12/16/13
f 5/5/14 12/16/14 13/17/14
f 5/5/15 13/17/15 14/18/15
f 5/5/16 14/18/16 15/19/16
f 5/5/17 15/19/17 6/6/17
f 16/20/18 17/21/18 18/22/18
f 16/20/18 18/22/18 19/23/18
f 16/20/19 19/23/19 20/24/19
f 16/20/20 20/24/20 21/25/20
f 16/20/21 21/25/21 22/26/21
f 16/20/22 22/26/22 17/21/22
f 17/21/23 22/26/23 23/27/23
f 17/21/24 23/27/24 24/28/24
f 17/21/25 24/28/25 25/29/25
f 17/21/26 25/29/26 18/22/26
f 18/22/27 25/29/27 26/30/27
f 18/22/28 26/30/28 19/23/28
f 19/23/29 26/30/29 20/24/29
f 20/24/30 26/30/30 27/31/30
f 20/24/31 27/31/31 14/18/31
f 20/24/32 30/32/32 21/25/32
f 21/25/33 30/32/33 31/33/33
f 21/25/34 31/33/34 32/34/34
f 21/25/35 32/34/35 33/35/35
f 21/25/36 33/35/36 34/36/36
f 21/25/37 34/36/37 22/26/37
f 24/28/38 8/11/38 38/37/38
f 24/28/39 38/37/39 25/29/39
f 25/29/40 38/37/40 7/9/40
f 25/29/41 7/9/41 6/8/41
f 25/29/41 6/8/41 26/30/41
f 27/31/42 15/19/42 14/18/42
f 38/37/43 8/11/43 7/9/43
f 11/15/44 10/14/44 39/38/44
f 11/15/45 39/38/45 40/39/45
f 11/15/46 40/39/46 12/16/46
f 33/35/47 39/38/47 34/36/47
f 28/40/48 43/41/48 44/42/48
f 28/40/49 44/42/49 29/43/49
f 43/41/49 42/44/49 46/45/49
f 43/41/49 46/45/49 45/46/49
f 43/41/48 45/46/48 44/42/48
f 46/45/50 42/44/50 41/47/50
f 46/45/51 41/47/51 47/48/51
f 47/48/47 41/47/47 53/49/47
f 22/26/52 34/36/52 35/50/52
f 22/26/53 35/50/53 23/27/53
f 23/27/54 35/50/54 36/51/54
f 23/27/55 36/51/55 24/28/55
f 24/28/56 36/51/56 37/52/56
f 24/28/57 37/52/57 8/11/57
f 34/36/58 39/38/58 48/53/58
f 34/36/58 48/53/58 49/54/58
f 34/36/59 49/54/59 35/50/59
f 10/14/60 50/55/60 39/38/60
f 39/38/61 50/55/61 48/53/61
f 8/11/57 37/52/57 51/56/57
f 8/11/62 51/56/62 52/57/62
f 8/11/63 52/57/63 9/12/63
f 9/13/64 52/58/64 10/14/64
f 10/14/65 52/58/65 50/55/65
f 20/24/66 14/18/66 28/40/66
f 20/24/66 28/40/66 29/43/66
f 20/24/67 29/43/67 30/32/67
f 12/16/68 40/39/68 41/47/68
f 12/16/68 41/47/68 42/44/68
f 12/16/69 42/44/69 13/17/69
f 13/17/69 42/44/69 43/41/69
f 13/17/70 43/41/70 14/18/70
f 14/18/70 43/41/70 28/40/70
f 29/43/67 44/42/67 30/32/67
f 30/32/71 44/42/71 31/33/71
f 31/33/71 44/42/71 45/46/71
f 31/33/72 45/46/72 32/34/72
f 32/34/72 45/46/72 46/45/72
f 32/34/73 46/45/73 33/35/73
f 33/35/73 46/45/73 47/48/73
f 33/35/72 47/48/72 39/38/72
f 47/48/72 53/49/72 39/38/72
f 39/38/74 53/49/74 40/39/74
f 40/39/74 53/49/74 41/47/74
